<svg xmlns="http://www.w3.org/2000/svg" version="1.1" xmlns:xlink="http://www.w3.org/1999/xlink" xmlns:svgjs="http://svgjs.dev/svgjs" width="1500" height="939" viewBox="0 0 1500 939"><g transform="matrix(1,0,0,1,-0.9090909090909918,-1.5145161290320743)"><svg viewBox="0 0 396 248" data-background-color="#fafafa" preserveAspectRatio="xMidYMid meet" height="939" width="1500" xmlns="http://www.w3.org/2000/svg" xmlns:xlink="http://www.w3.org/1999/xlink"><g id="tight-bounds" transform="matrix(1,0,0,1,0.2400000000000091,0.39999999999994884)"><svg viewBox="0 0 395.52 247.2" height="247.2" width="395.52"><g><svg></svg></g><g><svg viewBox="0 0 395.52 247.2" height="247.2" width="395.52"><mask id="820957ce-e171-4a08-894b-ccddacde429e"><rect width="395.52" height="247.2" fill="white"></rect><g transform="matrix(1,0,0,1,85.57971334068357,37.08)" id="clone"><svg viewBox="0 0 224.36057331863285 173.04" height="173.04" width="224.36057331863285"><g><svg viewBox="0 0 224.36057331863285 173.04" height="173.04" width="224.36057331863285"><g><svg viewBox="0 0 224.36057331863285 173.04" height="173.04" width="224.36057331863285"><g><svg viewBox="0 0 224.36057331863285 173.04" height="173.04" width="224.36057331863285"><g id="SvgjsG1137"><svg viewBox="0 0 224.36057331863285 173.04" height="173.04" width="224.36057331863285" id="SvgjsSvg1136"><g><svg viewBox="0 0 224.36057331863285 173.04" height="173.04" width="224.36057331863285"><g transform="matrix(1,0,0,1,0,0)"><svg width="224.36057331863285" viewBox="-1.9 -39 59.8 46.35" height="173.04" data-palette-color="#130912"><path d="M10.95 4.35L10.95 4.35Q7.4 4.35 5.23 2.58 3.05 0.8 2.08-2 1.1-4.8 1.1-7.85L1.1-7.85Q1.1-11.8 2.3-15.8 3.5-19.8 5.58-23.43 7.65-27.05 10.3-29.88 12.95-32.7 15.88-34.33 18.8-35.95 21.65-35.95L21.65-35.95Q23.7-35.95 24.98-34.98 26.25-34 26.25-31.65L26.25-31.65Q26.25-30.2 25.75-28.38 25.25-26.55 24.4-24.88 23.55-23.2 22.53-22.1 21.5-21 20.45-21L20.45-21Q20.05-21 19.63-21.25 19.2-21.5 18.9-22.15L18.9-22.15Q19.65-23 20.58-24.28 21.5-25.55 22.35-26.98 23.2-28.4 23.73-29.78 24.25-31.15 24.25-32.2L24.25-32.2Q24.25-33.2 23.68-33.83 23.1-34.45 21.8-34.45L21.8-34.45Q19.65-34.45 17.32-32.7 15-30.95 12.83-28.03 10.65-25.1 8.9-21.5 7.15-17.9 6.13-14.15 5.1-10.4 5.1-7L5.1-7Q5.1-4.55 5.8-2.33 6.5-0.1 8.08 1.28 9.65 2.65 12.15 2.65L12.15 2.65Q14.8 2.65 17.43 1.15 20.05-0.35 22.25-2.8 24.45-5.25 25.75-8.1L25.75-8.1 26.45-7.6Q24.8-4.35 22.45-1.63 20.1 1.1 17.2 2.73 14.3 4.35 10.95 4.35ZM33.2 4.35L33.2 4.35Q30.45 4.35 29.05 3.43 27.65 2.5 27.65 0.35L27.65 0.35Q27.65 0.2 27.9 0.2L27.9 0.2Q28.25 0.2 29.15 0.45 30.05 0.7 32.6 0.7L32.6 0.7Q36.9 0.7 40.55-0.28 44.2-1.25 46.87-2.95 49.55-4.65 51.02-6.78 52.5-8.9 52.5-11.15L52.5-11.15Q52.5-13.2 51.35-14.45 50.2-15.7 48.32-16.35 46.45-17 44.25-17.23 42.05-17.45 39.9-17.45L39.9-17.45Q38.95-17.45 37.97-17.43 37-17.4 36.15-17.4L36.15-17.4Q35-13.35 33.9-9.25 32.8-5.15 31.65-1.3L31.65-1.3Q30.4-1.3 29.55-2 28.7-2.7 28.7-3.7L28.7-3.7Q28.7-4.3 28.95-5.1 29.2-5.9 29.4-6.55L29.4-6.55Q29.7-7.55 30.45-9.9 31.2-12.25 32.27-15.4 33.35-18.55 34.65-22 35.95-25.45 37.32-28.75 38.7-32.05 40-34.6L40-34.6Q37.9-34.25 36.47-33.6 35.05-32.95 34.25-32.43 33.45-31.9 33.1-31.9L33.1-31.9Q32.85-31.9 32.47-32.13 32.1-32.35 31.8-32.68 31.5-33 31.5-33.25L31.5-33.25Q34-34.3 36.72-35.15 39.45-36 43.35-36L43.35-36Q45-36 47-35.73 49-35.45 50.8-34.63 52.6-33.8 53.75-32.23 54.9-30.65 54.9-28.05L54.9-28.05Q54.9-25.6 53.85-23.88 52.8-22.15 51.1-21.03 49.4-19.9 47.4-19.25 45.4-18.6 43.45-18.3L43.45-18.3Q47.15-18.1 49.42-17.25 51.7-16.4 52.87-15.23 54.05-14.05 54.45-12.75 54.85-11.45 54.85-10.25L54.85-10.25Q54.85-7.35 53.35-5 51.85-2.65 49.4-0.9 46.95 0.85 44.05 2.02 41.15 3.2 38.3 3.78 35.45 4.35 33.2 4.35ZM36.45-18.55L36.45-18.55Q39.2-18.65 41.92-19.18 44.65-19.7 46.9-20.85 49.15-22 50.52-23.85 51.9-25.7 51.9-28.45L51.9-28.45Q51.9-31.05 50.67-32.45 49.45-33.85 47.52-34.4 45.6-34.95 43.45-34.95L43.45-34.95Q43.2-34.95 42.97-34.95 42.75-34.95 42.5-34.9L42.5-34.9Q40.7-31.4 39.22-27.2 37.75-23 36.45-18.55Z" opacity="1" transform="matrix(1,0,0,1,0,0)" fill="black" class="wordmark-text-0" id="SvgjsPath1135" stroke-width="5" stroke="black" stroke-linejoin="round"></path></svg></g></svg></g></svg></g></svg></g><g></g></svg></g></svg></g></svg></g></mask><g mask="url(#820957ce-e171-4a08-894b-ccddacde429e)"><g><path d="M180.431 247.2v0c-14.517 0-26.213-3.619-35.086-10.857-8.915-7.279-15.355-16.644-19.322-28.094-4.008-11.45-6.011-23.411-6.011-35.884v0c0-16.153 2.454-32.408 7.36-48.765 4.907-16.357 11.614-31.958 20.12-46.802 8.465-14.803 18.116-27.991 28.952-39.565 10.837-11.532 22.246-20.631 34.228-27.296 11.941-6.625 23.739-9.937 35.393-9.937v0c8.383 0 15.192 1.983 20.426 5.95 5.193 4.008 7.79 10.816 7.791 20.426v0c0 5.93-1.022 12.616-3.067 20.058-2.045 7.483-4.805 14.64-8.281 21.469-3.476 6.87-7.299 12.554-11.471 17.053-4.212 4.498-8.465 6.747-12.759 6.747v0c-1.636 0-3.312-0.511-5.029-1.533-1.758-1.022-3.251-2.863-4.478-5.521v0c3.067-3.476 6.502-7.831 10.305-13.065 3.762-5.193 7.381-10.714 10.857-16.562 3.476-5.807 6.298-11.532 8.465-17.175 2.126-5.602 3.19-10.55 3.19-14.845v0c0-4.089-1.165-7.422-3.497-9.998-2.372-2.535-6.216-3.803-11.532-3.803v0c-8.792 0-17.952 3.578-27.48 10.734-9.487 7.156-18.668 16.705-27.542 28.646-8.915 11.982-16.95 25.333-24.106 40.055-7.156 14.722-12.82 29.75-16.991 45.085-4.212 15.335-6.318 29.954-6.318 43.858v0c0 10.019 1.431 19.567 4.293 28.646 2.863 9.119 7.524 16.5 13.986 22.144 6.42 5.602 14.742 8.404 24.965 8.403v0c10.837 0 21.633-3.067 32.388-9.201 10.714-6.134 20.569-14.21 29.566-24.229 8.997-10.019 16.153-20.856 21.469-32.51v0l4.293 3.067c-6.747 13.29-14.926 25.497-24.536 36.62-9.61 11.164-20.344 20.079-32.203 26.744-11.859 6.625-24.638 9.937-38.338 9.937z" fill="#130912" fill-rule="nonzero" stroke="none" stroke-width="1" stroke-linecap="butt" stroke-linejoin="miter" stroke-miterlimit="10" stroke-dasharray="" stroke-dashoffset="0" font-family="none" font-weight="none" font-size="none" text-anchor="none" style="mix-blend-mode: normal" data-fill-palette-color="tertiary"></path></g></g><g transform="matrix(1,0,0,1,85.57971334068357,37.08)"><svg viewBox="0 0 224.36057331863285 173.04" height="173.04" width="224.36057331863285"><g><svg viewBox="0 0 224.36057331863285 173.04" height="173.04" width="224.36057331863285"><g><svg viewBox="0 0 224.36057331863285 173.04" height="173.04" width="224.36057331863285"><g><svg viewBox="0 0 224.36057331863285 173.04" height="173.04" width="224.36057331863285"><g id="textblocktransform"><svg viewBox="0 0 224.36057331863285 173.04" height="173.04" width="224.36057331863285" id="textblock"><g><svg viewBox="0 0 224.36057331863285 173.04" height="173.04" width="224.36057331863285"><g transform="matrix(1,0,0,1,0,0)"><svg width="224.36057331863285" viewBox="-1.9 -39 59.8 46.35" height="173.04" data-palette-color="#130912"><path d="M10.95 4.35L10.95 4.35Q7.4 4.35 5.23 2.58 3.05 0.8 2.08-2 1.1-4.8 1.1-7.85L1.1-7.85Q1.1-11.8 2.3-15.8 3.5-19.8 5.58-23.43 7.65-27.05 10.3-29.88 12.95-32.7 15.88-34.33 18.8-35.95 21.65-35.95L21.65-35.95Q23.7-35.95 24.98-34.98 26.25-34 26.25-31.65L26.25-31.65Q26.25-30.2 25.75-28.38 25.25-26.55 24.4-24.88 23.55-23.2 22.53-22.1 21.5-21 20.45-21L20.45-21Q20.05-21 19.63-21.25 19.2-21.5 18.9-22.15L18.9-22.15Q19.65-23 20.58-24.28 21.5-25.55 22.35-26.98 23.2-28.4 23.73-29.78 24.25-31.15 24.25-32.2L24.25-32.2Q24.25-33.2 23.68-33.83 23.1-34.45 21.8-34.45L21.8-34.45Q19.65-34.45 17.32-32.7 15-30.95 12.83-28.03 10.65-25.1 8.9-21.5 7.15-17.9 6.13-14.15 5.1-10.4 5.1-7L5.1-7Q5.1-4.55 5.8-2.33 6.5-0.1 8.08 1.28 9.65 2.65 12.15 2.65L12.15 2.65Q14.8 2.65 17.43 1.15 20.05-0.35 22.25-2.8 24.45-5.25 25.75-8.1L25.75-8.1 26.45-7.6Q24.8-4.35 22.45-1.63 20.1 1.1 17.2 2.73 14.3 4.35 10.95 4.35ZM33.2 4.35L33.2 4.35Q30.45 4.35 29.05 3.43 27.65 2.5 27.65 0.35L27.65 0.35Q27.65 0.2 27.9 0.2L27.9 0.2Q28.25 0.2 29.15 0.45 30.05 0.7 32.6 0.7L32.6 0.7Q36.9 0.7 40.55-0.28 44.2-1.25 46.87-2.95 49.55-4.65 51.02-6.78 52.5-8.9 52.5-11.15L52.5-11.15Q52.5-13.2 51.35-14.45 50.2-15.7 48.32-16.35 46.45-17 44.25-17.23 42.05-17.45 39.9-17.45L39.9-17.45Q38.95-17.45 37.97-17.43 37-17.4 36.15-17.4L36.15-17.4Q35-13.35 33.9-9.25 32.8-5.15 31.65-1.3L31.65-1.3Q30.4-1.3 29.55-2 28.7-2.7 28.7-3.7L28.7-3.7Q28.7-4.3 28.95-5.1 29.2-5.9 29.4-6.55L29.4-6.55Q29.7-7.55 30.45-9.9 31.2-12.25 32.27-15.4 33.35-18.55 34.65-22 35.95-25.45 37.32-28.75 38.7-32.05 40-34.6L40-34.6Q37.9-34.25 36.47-33.6 35.05-32.95 34.25-32.43 33.45-31.9 33.1-31.9L33.1-31.9Q32.85-31.9 32.47-32.13 32.1-32.35 31.8-32.68 31.5-33 31.5-33.25L31.5-33.25Q34-34.3 36.72-35.15 39.45-36 43.35-36L43.35-36Q45-36 47-35.73 49-35.45 50.8-34.63 52.6-33.8 53.75-32.23 54.9-30.65 54.9-28.05L54.9-28.05Q54.9-25.6 53.85-23.88 52.8-22.15 51.1-21.03 49.4-19.9 47.4-19.25 45.4-18.6 43.45-18.3L43.45-18.3Q47.15-18.1 49.42-17.25 51.7-16.4 52.87-15.23 54.05-14.05 54.45-12.75 54.85-11.45 54.85-10.25L54.85-10.25Q54.85-7.35 53.35-5 51.85-2.65 49.4-0.9 46.95 0.85 44.05 2.02 41.15 3.2 38.3 3.78 35.45 4.35 33.2 4.35ZM36.45-18.55L36.45-18.55Q39.2-18.65 41.92-19.18 44.65-19.7 46.9-20.85 49.15-22 50.52-23.85 51.9-25.7 51.9-28.45L51.9-28.45Q51.9-31.05 50.67-32.45 49.45-33.85 47.52-34.4 45.6-34.95 43.45-34.95L43.45-34.95Q43.2-34.95 42.97-34.95 42.75-34.95 42.5-34.9L42.5-34.9Q40.7-31.4 39.22-27.2 37.75-23 36.45-18.55Z" opacity="1" transform="matrix(1,0,0,1,0,0)" fill="#130912" class="wordmark-text-0" data-fill-palette-color="primary" id="text-0"></path></svg></g></svg></g></svg></g></svg></g><g></g></svg></g></svg></g></svg></g></svg></g><defs></defs></svg><rect width="395.52" height="247.2" fill="none" stroke="none" visibility="hidden"></rect></g></svg></g></svg>